<svg xmlns="http://www.w3.org/2000/svg"><symbol id="brachiosaurus" viewBox="0 0 256 256"><path d="M60.5 165.9a30.8 30.8 0 0 0-7.5.8c0 .3.3.6.8 1a10.9 10.9 0 0 0 1.9 1l2.6 1 2.8.8 2.3.6 1.4.2h2.1l2.5-.4a9.2 9.2 0 0 0 2.3-.9 3.9 3.9 0 0 0 1.7-1.4 27.7 27.7 0 0 0-6.3-2.2 35.2 35.2 0 0 0-6.6-.5z"/><path d="M128 3.3a124.4 124.4 0 1 0 124.3 124.4A124.3 124.3 0 0 0 128 3.3zm81.1 68.6v.3a8.2 8.2 0 0 1-.1 1.4l-.3 2.1c-.2.7-.2 1.4-.4 2a9 9 0 0 1-.2 1.3 15.1 15.1 0 0 0-.9 1.8l-.6 1.9-.6 2a14.6 14.6 0 0 1-.7 1.9c-.5 1.1-1.1 2.1-1.6 3a21.1 21.1 0 0 0-1.6 3l-19.5 27.1a1.7 1.7 0 0 0-.2.5l-.3.3-.3.3-.4.5-1.6 2.2a33.9 33.9 0 0 0-2 2.8c-.8 1-1.5 2.1-2.2 3.1l-1.9 3.2c-.6 1.1-1 2-1.4 2.9a8 8 0 0 0-.5 2.3c0 .3-.2.5-.2.7s.2.4.2.7c-.2 0-.3.2-.3.4s.1.4.3.4v9.9a3.6 3.6 0 0 1-.2 1c-.2.4-.2.7-.4 1.1a6.7 6.7 0 0 0-.6 1.2c-.1.4-.4.8-.4 1.1v1.7a.4.4 0 0 1-.1.4l-.3.7-.7.8a1.1 1.1 0 0 1-.6.4v.4c0 .1.7.2.8.4s.9.4.9.4v2.8c0 1.2-.5 2.3-.6 3.5s-.6 2.2-.8 3.4-.5 2.3-.6 3.4a19.7 19.7 0 0 0-.4 3.5c0 2 .1 4.1.3 6.1a37.5 37.5 0 0 0 1.1 6 27.8 27.8 0 0 0 2.1 5.7 23.4 23.4 0 0 0 3.3 5.1l-1.2.8a8.5 8.5 0 0 1-1.7.6l-1.6.5h-1.9l-1-.3-1.2-.2-.9-.2-.8-.2a1.1 1.1 0 0 1-.7-.3l-.6-.4a.9.9 0 0 1-.3-.7c.1-1.3.1-2.6.1-4l-.3-4.2c-.1-1.4-.3-2.8-.5-4.1s-.4-2.8-.5-4a3.1 3.1 0 0 1-.2-.7l-.2-.5c0-1.1 0-2.3.1-3.6s0-2.6-.1-3.9a22.8 22.8 0 0 0-.6-3.9 11.6 11.6 0 0 0-1.4-3.4 3.7 3.7 0 0 0-1.4 1.8 19.8 19.8 0 0 0-.8 2.6c-.2 1-.2 1.9-.4 2.9a11.8 11.8 0 0 0-.9 2.3v7.4c0 2.7-.2 5.4-.1 8.1s.2 5.3.5 8l.4.3.8.6a2.7 2.7 0 0 1 .8.7.9.9 0 0 1 .3.6c0 .2-.2.5-.8.8a7.5 7.5 0 0 1-1.8.8l-1.9.8-1.3.4h-.2l-4.6-2.5c-.3-.1-.2-.4-.2-.5v-.6a28 28 0 0 1 0-2.9 27.1 27.1 0 0 0 .1-2.9 24.3 24.3 0 0 0-.3-3.8l-.6-3.6-.6-3.7c-.1-1.2-.2-2.4-.2-3.8s0-2.2.1-3.2.2-1.9.3-2.7l.6-2.8c.2-.9.4-2 .6-3.1s0-.4 0-.7a2.5 2.5 0 0 1-.2-.7l-1.8.2-1.8.5-1.9.6-1.8.5-1.4.2h-1c-.4.1-.7-.1-1-.1h-2.8a44.7 44.7 0 0 1-5.2-.1h-7.5a4 4 0 0 0-2.3.8 43.4 43.4 0 0 1 0 5.1c0 1.7-.1 3.3-.1 5l-.3 5c0 1.6-.1 3.3-.1 5v5c0 .6.6 1.1 1.1 1.7l1.3 1.6a13.6 13.6 0 0 1 1.2 1.7 3.1 3.1 0 0 1 .5 1.8v.4a10.7 10.7 0 0 1-4 .4c.1.4 0 .7-.2.7h-2.7a8.2 8.2 0 0 1-2.2-.2 3.8 3.8 0 0 1-1.7-.8 2.2 2.2 0 0 1-.8-1.8c0-.5.1-.9.1-1.3l.3-1.3a5.6 5.6 0 0 0 .4-1.2 6.6 6.6 0 0 0 .1-1.4 23.4 23.4 0 0 0-.3-3.8l-.6-3.5c-.3-1.1-.6-2.6-.8-3.7a19.5 19.5 0 0 1-.7-3.9h-.5c-.2 0-.3.7-.5.9l-.3.7-.4.5a14.3 14.3 0 0 1-1.5 2.2l-1.4 2.2a25.6 25.6 0 0 0-1.1 2.4 10.9 10.9 0 0 0-.4 2.6 4.1 4.1 0 0 0 .3 1.6 10.2 10.2 0 0 0 .8 1.5 12.7 12.7 0 0 0 .7 1.2l.3.5a.8.8 0 0 1-.4.7l-1 .5-1.3.2h-4.2a1.8 1.8 0 0 1-1.1-.4 1.9 1.9 0 0 1-.7-.8l-.5-1.6c-.2-.5-.3-1.1-.5-1.6a4.1 4.1 0 0 1-.3-1.6 4.8 4.8 0 0 1 .4-1.5 13 13 0 0 1 1-1.5 14 14 0 0 1 1-1.6 10 10 0 0 0 .8-1.4l2.4-5.7 2.4-5.8a45708956252725.3 45708956252725.3 0 0 1 1-1.4l.4-.8a1.9 1.9 0 0 0 .2-.8c0-.3-.1-.6-.4-.6h-1.2l-8.8 2.4a3.2 3.2 0 0 1-1.3.5l-1.7.4a3.4 3.4 0 0 0-1.5.6 1 1 0 0 0-.7 1 2.4 2.4 0 0 0 .2.9l.7.6.8.6a1.3 1.3 0 0 1 .7.6l-.4.4-1.2-.8-1.4-.9-1.5-.6-1.5-.2a16.4 16.4 0 0 0-3.7.5l-3.9 1.1-4 1.1a14 14 0 0 1-4.1.5l-3.4-.3-4.8-1-5.3-1.8a26.7 26.7 0 0 1-4.8-2.2 12.8 12.8 0 0 1-3.6-2.6 3.8 3.8 0 0 1-1.4-2.9 4.2 4.2 0 0 1 1.1-3.2 6.3 6.3 0 0 1 2.6-1.6 13.6 13.6 0 0 1 3.5-.1 26.9 26.9 0 0 1 3.2.3H61c.2 0 .6-.4 1.3-.3s1.4 0 2.3.2l2.5.3 1.9.3a6.7 6.7 0 0 1 1.9.5l1.7.8 1.8.8a6.4 6.4 0 0 0 2 .3 8.9 8.9 0 0 0 3.9-1.1 29.2 29.2 0 0 0 4-2.5c1.3-.9 2.6-2 3.8-3l3.2-2.7 1.8-1.2 1.8-1.1a6.6 6.6 0 0 0 1.7-1.2 5 5 0 0 0 1.5-1.7 37.8 37.8 0 0 0 2.6-4.3 24.3 24.3 0 0 1 2.6-4.4 8 8 0 0 1 1.3-1.3l1.5-1 1.6-.8 1.6-.9 3.5-2.6 3.4-2.8 3.3-3 3.3-2.8a27.1 27.1 0 0 1 3.7-2.1l3.9-1.9 2.4-1.2 2.4-1.3 2.5-1.1a12.5 12.5 0 0 1 2.6-.7l22-3.2a11.2 11.2 0 0 0 3.4-1.1 21 21 0 0 0 3.3-2.2 39.2 39.2 0 0 0 3.1-2.8c1-1 1.9-2.1 2.8-3.2l2.6-3.1 2.3-2.8 7.6-8.7q0-.1.3-.3l.5-.5.5-.6.3-.2 2-3.2c0-.1.1-.1.2-.2l.4-.2.4-.2.2-.2.4-.4c.2-.2.3-.3.3-.4l1.3-1.7c.4-.6.9-1.2 1.3-1.9l1.3-1.9a14.7 14.7 0 0 0 .9-1.7 12.1 12.1 0 0 0 .9-2l.6-2.1.8-2.1c.3-.7 1-1.4 1-2.2v-5.9a4.8 4.8 0 0 0-1.1-3 9.2 9.2 0 0 0-2.6-2.6 10.6 10.6 0 0 0-3.3-1.8 9.4 9.4 0 0 0-3.1-.6 26.2 26.2 0 0 0-5.7.6 11.5 11.5 0 0 0-5 2.6l-1.4 1.4-1.6 1.8c-.5.7-1.1 1.3-1.7 2a15.3 15.3 0 0 1-1.8 1.8 10.2 10.2 0 0 1-1.8 1.3 3.7 3.7 0 0 1-1.7.5 1.7 1.7 0 0 1-1.2-.5 1.6 1.6 0 0 1-.5-1.1v-.4l.2-.5c0-.2.1-.5.1-.7s.1-.6.2-.8v-.4a7.9 7.9 0 0 0-.2-1.7l-.6-1.3-.6-1.2a5 5 0 0 1-.2-1.2 1 1 0 0 0 .8-.3.9.9 0 0 0 .4-.6l.5-.7c.1-.3.4-.4.7-.6h.6l.8-.2c.4.1.7-.1.9-.1h.5q.8 0 .9-.3a4.6 4.6 0 0 1 .7-.7h.4c.1 0 .2.2.3.4s.1.3.1.4.2-.4.4-.4l.6-.4 1.1-.6 1.4-.8 1.3-.8 1-.6.6-.4 2-1.2a6.4 6.4 0 0 1 1.8-.6 5.8 5.8 0 0 1 1.9-.2h6.3l1.4.5 1.5.3 1.5.3 1.5.5a14.8 14.8 0 0 1 4.5 3 15.3 15.3 0 0 1 3.1 4.1 20.3 20.3 0 0 1 1.7 4.9 24.7 24.7 0 0 1 .5 5.4v2.2z"/></symbol><symbol id="micropachycephalosaurus" viewBox="0 0 256 256"><path d="M132.7 150.2c-.2 0-.4.2-.4.6-.3 0-.5.1-.5.4s.2.6.5.6.4-.2.4-.6c.4 0 .5-.1.5-.4s-.1-.6-.5-.6zm1.5-.8a2.4 2.4 0 0 0-.9.8h.3a2.3 2.3 0 0 0 1.1-.3 2 2 0 0 0 .8-.8h-.3a1.9 1.9 0 0 0-1 .3zm2.9-2.5a.5.5 0 0 0-.4.5h-.1c-.3 0-.4.2-.4.6h-.1c-.3 0-.5.2-.5.6a.5.5 0 0 0 .5.5c.3 0 .4-.2.4-.5h.1c.3 0 .5-.2.5-.6.4 0 .5-.2.5-.6s-.1-.5-.5-.5zm22.6-5.8a8.7 8.7 0 0 1-1.2 1.4 1.4 1.4 0 0 0 .8 1 2 2 0 0 0 1.1.2 2 2 0 0 0 1.3-.4 4.1 4.1 0 0 0 1.1-1.2 6.9 6.9 0 0 0 .7-1.5c.2-.5.4-1.1.5-1.1h-3.3c-.2 0-.5 1-1 1.6z"/><path d="M128.3 4A123.7 123.7 0 1 0 252 127.7 123.6 123.6 0 0 0 128.3 4zm92.8 73.4a4.1 4.1 0 0 1-1.6.3h-3.6l-5 1.2a15 15 0 0 0-3.6 1.6 7.9 7.9 0 0 0-2.4 2.1 14.8 14.8 0 0 0-1.7 2.8 27.7 27.7 0 0 0-1.4 3.8l-1.7 4.9a33.8 33.8 0 0 1-1.1 3.4l-1.2 3.1c-.5 1-.9 2-1.5 3a33.7 33.7 0 0 1-1.7 3.2 26.5 26.5 0 0 1-2.6 3.9l-2.8 3.6-3 3.5a37.9 37.9 0 0 0-3.1 3.7 9.1 9.1 0 0 0-1.3 2.6 26 26 0 0 1-1 2.5 6.7 6.7 0 0 1-1.3 2.1 4.8 4.8 0 0 1-2.4 1.6l-1.3.5-2 .7-1.9.6-1.4.4a2.7 2.7 0 0 1 .2 1.9 2.4 2.4 0 0 1-.8.9l-1.2.6a2 2 0 0 0-.9.9l-2.2 6.6a2.5 2.5 0 0 1-1 1.5l-1.7.8a13.6 13.6 0 0 1-2 .2l-1.8-.2h-.8c-.5 0-.8.2-1.1.1s-.4-.3-.4-.8 0-.3.1-.4l.2-.3.3-.2c0-.1.1-.3.1-.4h-.1v-.2a24.9 24.9 0 0 0-3.3 1.6l-3.3 2-3.2 2.1a27.9 27.9 0 0 1-3.3 1.9l-.8.5-1.2.5a7.3 7.3 0 0 0-.9.8 1.4 1.4 0 0 0-.5 1c0 .1.1.2.1.3v.3l1.7 1.5 1.9 1.7 2 1.6 2.1 1.2 1.7.7 1.9.5 1.8.6a5.6 5.6 0 0 1 1.7.9 8.6 8.6 0 0 1 1.3 1.4 13.4 13.4 0 0 0 1.1 1.4l1 1.4a6.4 6.4 0 0 0 1.5 1.3l1.6.6a6.6 6.6 0 0 1 2 .6 5.2 5.2 0 0 1 1.8 1 2 2 0 0 1 .7 1.6.4.4 0 0 1-.1.3v.2l-5.5 1.2a2.9 2.9 0 0 0-1 .3 2.1 2.1 0 0 1-1.2.3h-.5l-1.1-.6-1.7-1-1.6-.9-1.1-.8-.2-.2c-.1-.1-.1-.3-.3-.5l-.3-.5-.2-.4-2.2-4.4-1.1-.5-1.8-.7-2.1-.9-2.1-.9-1.7-.8-1.1-.6-2.7-1.5a12.7 12.7 0 0 1-2.5-2.1 12.1 12.1 0 0 1-2-2.6 7.1 7.1 0 0 1-1-3.1l-.6.2-.5.4-.9.6-1.6 1.1-2.1 1.4-2.1 1.3-1.7 1.1-.9.5-5.8 3.4a19.1 19.1 0 0 0-4.4 3.4 16.8 16.8 0 0 0-3.6 4.3c-.8 1.6-.7 3.8-2.3 6.4v1.6a10 10 0 0 0 1.1 4.3 8.7 8.7 0 0 0 2.1 2.5 7.9 7.9 0 0 0 2.6 1.3l2.5 1a5.6 5.6 0 0 1 1.9.9 4.7 4.7 0 0 1 .7 2h-12.9l-.2-.4-.3-.2h-.5l-.6-.3a2.9 2.9 0 0 1-1.2-1.5 8 8 0 0 1-.5-2.1 17.9 17.9 0 0 1 .2-2.3c0-.8.3-1.4.3-2v-1.4a6.2 6.2 0 0 1 .2-1.7l.6-2.7a22.1 22.1 0 0 0 .7-3c.3-1.1.6-2.1.8-3.1s.5-1.8.7-2.6l.4-1.7.6-2 1-1.8a15.4 15.4 0 0 0 4.4-2.5 31.1 31.1 0 0 0 3.1-3.2l2.9-3.3a11.8 11.8 0 0 1 3.3-3 3.7 3.7 0 0 1 1.4-.7l2-.8 2.3-.9 2.1-1.1a10 10 0 0 0 1.5-1.3 2.4 2.4 0 0 0 .6-1.5V141a2.3 2.3 0 0 0-.6-1.2l-.8-.3-1.1-.5-1.2-.6-.7-.3a9.4 9.4 0 0 1-2-1.2c-.9-.5-1.7-1.2-2.6-1.8l-2.5-1.5a3.1 3.1 0 0 0-1.7-.6h-7.6c-5.9 0-11.6-.1-17.2.1s-11.4.2-17.2.2c-4.3 0-8.5-.1-12.5-.3a97.4 97.4 0 0 1-12.1-1.4 79.6 79.6 0 0 1-11.7-2.8 70.9 70.9 0 0 1-11.5-4.9l-1.3-.7-1.6-1a8 8 0 0 1-1.3-1.3 2.5 2.5 0 0 1-.5-1.5 5.9 5.9 0 0 1 2.1.4l2.3.9a10.2 10.2 0 0 1 2.1 1l1.5.6 4.6 1.6 4.9 1.4 5 1 4.7.3h25.8l2.5-.4 3.3-.5 3.5-.6a27.9 27.9 0 0 0 3.3-.6l2.6-.5 6.7-1.3 7.2-1.6 7.1-2a41.2 41.2 0 0 0 6.4-2.8l3.7-1.7 3.7-1.6 3.9-1.2a24.7 24.7 0 0 1 4.1-.9h.9l1.8-.2h1.7l1-.2 1.9-.3 3.2-.7 4-.9 3.9-.9c1.2-.3 2.3-.9 3.2-1.1s1.6-.7 1.9-.7h6.3c2.7 0 5.3.5 7.8.7s5 .5 7.6.5a9.6 9.6 0 0 0 4.9-1.2 20 20 0 0 0 4.4-3.4 30.9 30.9 0 0 0 3.8-4.8c1.1-1.8 2.2-3.7 3.1-5.5a52.5 52.5 0 0 0 2.5-5.5c.7-1.8 1.3-3.3 1.7-4.7a21.3 21.3 0 0 0 1.1-3.3c.4-1.1.7-2.1 1-3.1a11.5 11.5 0 0 1 1.2-2.5 8.2 8.2 0 0 1 1.7-2 8.1 8.1 0 0 1 2.6-1.5 12 12 0 0 1 3.7-.8h2.9c.8 1.6 1.8.9 2.9 1.3a36.8 36.8 0 0 1 3.5 1.5 11.9 11.9 0 0 1 2.9 1.8 2.6 2.6 0 0 1 1.2 2.1 2.3 2.3 0 0 1-.4 1.4z"/></symbol><symbol id="velociraptor" viewBox="0 0 256 256"><path d="M128.2 2C60.3 2 5.3 58.4 5.3 128s55 125.9 122.9 125.9S251 197.5 251 128 196 2 128.2 2zm106.2 114.9h-7.1a88.5 88.5 0 0 1-8.9-.5l-8.8-.9-8.7-1a88.3 88.3 0 0 0-8.9-.4 118.2 118.2 0 0 0-15.7 1 65.6 65.6 0 0 0-15.3 3.6l-29.5 10.9a2.6 2.6 0 0 0-1.2 1.6 17.3 17.3 0 0 0-.8 2.7l-.6 2.8a8.1 8.1 0 0 1-.6 2 4 4 0 0 0 1.3 1.3 13.3 13.3 0 0 0 2.4 1.1l2.8 1.2a22.9 22.9 0 0 1 2.7 1.4 9.1 9.1 0 0 1 2 1.9 4.1 4.1 0 0 1 .8 2.4 1.7 1.7 0 0 1-.5 1.2l-1.2.9-1.5.7-1.6.8a5.8 5.8 0 0 0-1.2 1 2.4 2.4 0 0 0-.4 1.5 3.6 3.6 0 0 0 .7 2.5 9.5 9.5 0 0 0 1.9 1.6 17.1 17.1 0 0 0 2.3 1.3 8.7 8.7 0 0 1 2.1 1.7 19.3 19.3 0 0 1 1.9 3.4 27.2 27.2 0 0 1 1.3 3.7c.3 1.2.5 2.5.7 3.8s.1 2.6.3 3.9l1.2 1.3v7.1h.9l.9.2 1 .2.5.2a4.4 4.4 0 0 1 .1.9 3.4 3.4 0 0 1-.1.9l-.3 1.3a3.1 3.1 0 0 1-.7.9.8.8 0 0 1-.8.3h-5c-.2 0-.5-.5-1-.8l-1.4-.9-1.5-.7c-.5-.4-.9-.9-1.1-.9h-6a4.8 4.8 0 0 1 .6-2.9 6.1 6.1 0 0 1 1.6-1.6 7.3 7.3 0 0 1 2.1-.6l2-.4a3.8 3.8 0 0 0 1.6-.6 1.4 1.4 0 0 0 .6-1.3v-.6a17.8 17.8 0 0 1-.8-1.8c-.4-.7-.8-1.6-1.3-2.4a15.8 15.8 0 0 0-1.5-2.4 7.1 7.1 0 0 0-1.5-1.8l-1.2-.8-1.8-1a9.5 9.5 0 0 1-1.7-1 2.2 2.2 0 0 1-.9-1.1 11 11 0 0 1-.9-2.9 30.1 30.1 0 0 0-1.1-3.2 7.2 7.2 0 0 0-1.6-2.5 3.9 3.9 0 0 0-2.8-1.1 23.9 23.9 0 0 0-5.9.8 28.7 28.7 0 0 0-5.5 2.2 26.8 26.8 0 0 0-4.8 3.5 20.6 20.6 0 0 0-3.8 4.5l-.3.2h-.3c-.1 0-.1-.2-.2-.3a6.4 6.4 0 0 1-.2-.7c0-.2-.1-.4-.1-.6s-.1-.3-.2-.3h-.2a1.6 1.6 0 0 0-1.1.5 6.2 6.2 0 0 0-.8 1.2l-.8 1-.8 1a5.6 5.6 0 0 1-.7-1.7v-1.6a13.6 13.6 0 0 1 .3-2.9l.9-2.7c.3-1 .6-1.6.9-2.6s.4-2.7.4-2.7h-4.7c0-1.7.2-1.8.6-2.4a4.6 4.6 0 0 1 1.6-1.5 5.2 5.2 0 0 1 2-.9l2.1-.3a14.6 14.6 0 0 1 2.9.2l2.8.4 2.8.5 2.8.2h2.2a2.4 2.4 0 0 0-1.6-1.3l-2.4-.5-2.6-.2c-.9 0-1.6.2-2.1-.2l-3.8-2.1h-.3a15.3 15.3 0 0 0-3-.1 10.8 10.8 0 0 1-3.1.2 7.3 7.3 0 0 1-2.9-.7 20.1 20.1 0 0 1-2.5-1.4l-2.6-1.3a4.8 4.8 0 0 0-2.8-.6v6l1.6-.2.9-.3.9-.5a3.5 3.5 0 0 1 .9-.6l.5-.2v2.7l2-.6c0 .1.2.2.2.5a4.3 4.3 0 0 0 .1.5 5.5 5.5 0 0 1-1.3 3.8 17.4 17.4 0 0 1-3.1 2.9 27.1 27.1 0 0 0-4.4-1.3l-4.7-.6v-7.7a8 8 0 0 0-1.6.5 12.4 12.4 0 0 0-2 1 8.8 8.8 0 0 0-1.9 1.2c-.4.4-.9.8-.9 1.1v6.9a9.3 9.3 0 0 0 2.9-.3l1.8-.6 1.2-.6a2 2 0 0 1 1.1-.3h.4l.2.7.5 1.2c.1.5.3.9.4 1.3a4.1 4.1 0 0 1 .1 1 6.8 6.8 0 0 1-.3 1.9 8.7 8.7 0 0 1-1.1 1.8 6.4 6.4 0 0 1-1.5 1.3 3.5 3.5 0 0 1-1.8.5h-.9l-2.9-.5a22.9 22.9 0 0 1-3.6-.7 12.5 12.5 0 0 1-3.1-1.2 2.6 2.6 0 0 1-1.4-2.1v-11.7l.9-.8 1.8-1.6 2.3-2.1 2.3-2.5a13.4 13.4 0 0 0 1.7-2.7 5 5 0 0 0 .7-2.5 3.7 3.7 0 0 0-1.1-2.8 18.9 18.9 0 0 0-2.7-2l-3.1-1.4-2.5-.9-1.2-9q-.3-1.2-.6-2.7a21.8 21.8 0 0 0-1.1-2.7 8.7 8.7 0 0 0-1.7-2.1 3.9 3.9 0 0 0-2.6-.9 12.3 12.3 0 0 0-3.5.5 12.5 12.5 0 0 0-3.1 1.5l-1.6 1-2.4 1.5-2.9 1.7-2.9 1.7-2.4 1.7c-.8.4-1.3 1.1-1.6 1.1h-1l-1.7-.3-2-.3a5.7 5.7 0 0 1-1.3-.8c-.4-.3-.3-.8-.3-1.3V119c0-.6-.2-.9 0-.9h1.5v-.5c.1-.2.1-.5.2-.8a2.5 2.5 0 0 0 .1-.8 1.3 1.3 0 0 0 .1-.5c-.3-.4-.5-.7-.8-.8l-.9-.5c-.2-.2-.5-.4-.6-.7a1.7 1.7 0 0 1-.3-1.2 5 5 0 0 1 .2-1.2 4.1 4.1 0 0 1 .7-1.1c.3-.4.2-.7.6-.9l.8-.3v.7c0 .5.4 1 .5 1.5a1.3 1.3 0 0 0 2.2.2 3.6 3.6 0 0 0 1-1.1c.2-.4.4-1.1.6-1.6s.2.3.2-1.4H25.3l-.8-.4-1-.7a3.6 3.6 0 0 1-.9-.8 1.3 1.3 0 0 1-.4-1 5.1 5.1 0 0 1 1-3.2 7.8 7.8 0 0 1 2.6-1.7 10.6 10.6 0 0 1 3-1l2.8-.9 2.1-.9L37 95l3.2-1.6a8.8 8.8 0 0 1 2.1-1h13.2a7.8 7.8 0 0 1 3.7.9 14.2 14.2 0 0 1 3 2.5 40.8 40.8 0 0 1 2.5 3.3c.7 1.2 1.5 2.3 2.2 3.3a13.6 13.6 0 0 0 2.2 2.5 3.3 3.3 0 0 0 2.4 1 .7.7 0 0 0 .7-.4 1 1 0 0 1 .8-.4 4 4 0 0 1 1.5.3l1.5.7 1.4.7a4.1 4.1 0 0 0 1.6.3 25.5 25.5 0 0 0 3.9-.2l4-.4 4-.5 3.9-.2a54.3 54.3 0 0 1 7.1.4 38.9 38.9 0 0 1 7 1.6 47.8 47.8 0 0 1 4.8 1.9l5 2.2a42 42 0 0 0 5 1.7 18.8 18.8 0 0 0 5.3.7h2.5l12.4-2.7 12.4-2.3c4.1-.6 8.3-1.1 12.5-1.5s8.4-.6 12.6-.6h3.3l5.3.2a33 33 0 0 1 4.9.9l35.1 7.2h11.4c-.8 0-1.8 1-3.1 1.3a12.5 12.5 0 0 1-3.9.1z"/></symbol></svg>